<svg width="150" height="150" viewBox="0 0 80 80" fill="none" xmlns="http://www.w3.org/2000/svg">
<path d="M40.1302 55.4972C46.0623 55.4972 50.8635 50.6675 50.8635 44.7194C50.8635 38.7713 46.0623 33.9417 40.1302 33.9417C34.198 33.9417 29.3968 38.7713 29.3968 44.7194C29.3968 50.6675 34.198 55.4972 40.1302 55.4972ZM48.8635 44.7194C48.8635 49.5716 44.9492 53.4972 40.1302 53.4972C35.3112 53.4972 31.3968 49.5716 31.3968 44.7194C31.3968 39.8673 35.3112 35.9417 40.1302 35.9417C44.9492 35.9417 48.8635 39.8673 48.8635 44.7194ZM6.18937 43.197C13.8291 32.2256 25.8455 25 40.1305 25C54.4152 25 66.4312 32.2295 74.071 43.2016C74.7026 44.1086 74.7026 45.3088 74.071 46.2158C66.4314 57.1873 54.4152 64.4132 40.1302 64.4132C25.8455 64.4132 13.8292 57.1834 6.18936 46.2112C5.55782 45.3042 5.55782 44.104 6.18937 43.197Z" stroke="#1A1F26" stroke-width="2"/>
<mask id="mask0_807_788" style="mask-type:alpha" maskUnits="userSpaceOnUse" x="26" y="45" width="27" height="11">
<rect x="26" y="45" width="27" height="11" fill="white"/>
</mask>
<g mask="url(#mask0_807_788)">
<path d="M40.1302 55.4972C46.0623 55.4972 50.8635 50.6675 50.8635 44.7194C50.8635 38.7713 46.0623 33.9417 40.1302 33.9417C34.198 33.9417 29.3968 38.7713 29.3968 44.7194C29.3968 50.6675 34.198 55.4972 40.1302 55.4972ZM48.8635 44.7194C48.8635 49.5716 44.9492 53.4972 40.1302 53.4972C35.3112 53.4972 31.3968 49.5716 31.3968 44.7194C31.3968 39.8673 35.3112 35.9417 40.1302 35.9417C44.9492 35.9417 48.8635 39.8673 48.8635 44.7194ZM40.1302 64.4132C25.2036 64.4132 12.7497 56.5176 5.18258 44.7041C12.7496 32.891 25.2035 25 40.1305 25C55.0572 25 67.5107 32.8953 75.0778 44.7087C67.5108 56.5218 55.0572 64.4132 40.1302 64.4132Z" stroke="#E31E24" stroke-width="2"/>
</g>
</svg>
