<svg width="672" height="327" viewBox="0 0 672 327" fill="none" xmlns="http://www.w3.org/2000/svg">
<path d="M16 19C16 18.4696 16.2107 17.9609 16.5858 17.5858C16.9609 17.2107 17.4696 17 18 17H21.28C21.4898 17.0002 21.6942 17.0663 21.8644 17.189C22.0345 17.3118 22.1617 17.485 22.228 17.684L23.726 22.177C23.8019 22.4053 23.7929 22.6534 23.7007 22.8756C23.6085 23.0979 23.4393 23.2795 23.224 23.387L20.967 24.517C22.0733 26.9655 24.0345 28.9267 26.483 30.033L27.613 27.776C27.7205 27.5607 27.9021 27.3915 28.1244 27.2993C28.3466 27.2071 28.5947 27.1981 28.823 27.274L33.316 28.772C33.5152 28.8383 33.6885 28.9657 33.8112 29.136C33.934 29.3064 34.0001 29.511 34 29.721V33C34 33.5304 33.7893 34.0391 33.4142 34.4142C33.0391 34.7893 32.5304 35 32 35H31C22.716 35 16 28.284 16 20V19Z" fill="white"/>
<g opacity="0.2" clip-path="url(#clip0)">
<path d="M68.8702 113.608C69.8787 113.608 70.6962 112.791 70.6962 111.782C70.6962 110.774 69.8787 109.956 68.8702 109.956C67.8617 109.956 67.0442 110.774 67.0442 111.782C67.0442 112.791 67.8617 113.608 68.8702 113.608Z" fill="#1A1F26"/>
<path d="M45.7405 113.608C46.749 113.608 47.5666 112.791 47.5666 111.782C47.5666 110.774 46.749 109.956 45.7405 109.956C44.7321 109.956 43.9145 110.774 43.9145 111.782C43.9145 112.791 44.7321 113.608 45.7405 113.608Z" fill="#1A1F26"/>
<path d="M68.8697 102.652H45.7402C43.6836 102.652 41.7901 103.344 40.2622 104.495V93.522C40.2622 92.694 39.7046 91.9695 38.9046 91.7573C38.1068 91.5457 37.2629 91.8975 36.8503 92.6162L22.2422 118.18C21.5486 119.397 22.4271 120.912 23.828 120.912H31.1321C34.1204 120.912 36.7696 119.463 38.4361 117.237C40.1027 119.463 42.7519 120.912 45.7402 120.912H68.8697C73.9043 120.912 77.9998 116.817 77.9998 111.782C77.9999 106.748 73.9044 102.652 68.8697 102.652ZM45.7402 117.26C42.7195 117.26 40.2622 114.803 40.2622 111.782C40.2622 108.761 42.7195 106.304 45.7402 106.304C48.7609 106.304 51.2182 108.761 51.2182 111.782C51.2182 114.803 48.7609 117.26 45.7402 117.26ZM68.8697 117.26C65.849 117.26 63.3917 114.803 63.3917 111.782C63.3917 108.761 65.849 106.304 68.8697 106.304C71.8904 106.304 74.3478 108.761 74.3478 111.782C74.3478 114.803 71.8904 117.26 68.8697 117.26Z" fill="#1A1F26"/>
<path d="M68.8699 77.0876H57.9138C57.0757 77.0876 56.3457 77.6577 56.1425 78.4708L52.8363 91.6959H51.2184V89.8699C51.2184 88.8612 50.4005 88.0438 49.3924 88.0438C48.3843 88.0438 47.5664 88.8612 47.5664 89.8699V92.6841C45.3869 93.9494 43.9143 96.3034 43.9143 98.9999V99.1457C44.5124 99.0597 45.1188 98.9999 45.7404 98.9999H68.8699C70.832 98.9999 72.6849 99.4573 74.3479 100.251V82.5657C74.348 79.545 71.8906 77.0876 68.8699 77.0876ZM67.0439 89.8699C67.0439 90.8783 66.2263 91.6959 65.2179 91.6959H56.6003L59.3392 80.7398H65.2179C66.2263 80.7398 67.0439 81.5574 67.0439 82.5658V89.8699Z" fill="#1A1F26"/>
</g>
<g opacity="0.2">
<path d="M173.848 119.467L169.594 112.65C171.008 112.031 172 110.621 172 108.979V91.9496C172 91.3959 171.553 90.9479 171 90.9479C170.447 90.9479 170 91.3959 170 91.9496V92.9513H168V90.9067C168 88.7575 167.231 86.6738 165.834 85.0401L161.891 80.4325C160.799 75.8557 145.201 75.8557 144.109 80.4325L140.166 85.0401C138.77 86.6738 138 88.7575 138 90.9067V92.9513H135.816C135.402 91.7878 134.302 90.9479 133 90.9479H131C130.734 90.9479 130.48 91.0536 130.293 91.2413L126.293 95.2483C126.105 95.4361 126 95.6904 126 95.9566V101.967C126 103.624 127.346 104.972 129 104.972H134V107.077C130.617 107.568 128 110.465 128 113.988C128 117.854 131.141 121 135 121C138.859 121 142 117.854 142 113.988C142 113.645 141.947 113.316 141.899 112.986H167.446L172.152 120.529C172.342 120.834 172.668 121 173 121C173.182 121 173.365 120.951 173.529 120.847C173.998 120.555 174.141 119.937 173.848 119.467ZM153 78.9999C157.547 78.9999 160 80.4198 160 80.9999C160 81.5799 157.547 82.9999 153 82.9999C148.453 82.9999 146 81.58 146 81C146 80.4199 148.453 78.9999 153 78.9999ZM135 116C133.896 116 133 115.103 133 114C133 112.898 133.897 112 135 112C136.104 112 137 112.898 137 114C137 115.103 136.104 116 135 116ZM168 111H141.298C140.309 108.934 138.347 107.441 136 107.101V104V95H138V101C138 104.699 144.553 109 153 109C161.447 109 168 104.699 168 101V95H170V109C170 110.103 169.104 111 168 111Z" fill="#1A1F26"/>
</g>
<g opacity="0.2">
<path d="M270 111.686C270 116.634 266.151 120.645 261.403 120.645C256.655 120.645 252.806 116.634 252.806 111.686C252.806 106.738 258.824 97.3507 261.403 92.871C263.982 97.3507 270 106.738 270 111.686Z" fill="#1A1F26"/>
<path fill-rule="evenodd" clip-rule="evenodd" d="M242.688 77.0818C243.121 77.2657 243.371 77.7196 243.294 78.1807L241.448 89.1678H250.462C250.849 89.1678 251.203 89.3848 251.376 89.7283C251.549 90.0718 251.512 90.4829 251.279 90.7901L239.016 107.014C238.733 107.388 238.229 107.521 237.796 107.337C237.363 107.154 237.112 106.7 237.19 106.239L239.036 95.2516H230.022C229.635 95.2516 229.281 95.0346 229.108 94.6911C228.935 94.3476 228.972 93.9365 229.204 93.6293L241.468 77.4057C241.751 77.0317 242.255 76.8979 242.688 77.0818Z" fill="#1A1F26"/>
</g>
<g opacity="0.2">
<path d="M360.489 94.4475L351.333 97.6031C349.757 98.1462 348.247 96.6365 348.79 95.0606L351.946 85.9039C352.312 84.8406 353.483 84.2884 354.537 84.6821L359.759 86.6338L362.668 83.7251C361.894 82.9507 361.894 81.6951 362.668 80.9207L365.741 77.8479C367.531 76.0579 370.335 78.8622 368.545 80.6522L365.472 83.7251C364.698 84.4995 363.442 84.4995 362.668 83.7251L359.759 86.6338L361.711 91.8566C362.105 92.9101 361.553 94.0811 360.489 94.4475Z" fill="#1A1F26"/>
<path d="M359.759 86.6338L361.711 91.8566C362.105 92.9101 361.553 94.0811 360.489 94.4475L351.333 97.6031C349.757 98.1462 348.247 96.6365 348.79 95.0606L351.946 85.9039C352.312 84.8406 353.483 84.2884 354.537 84.6821L359.759 86.6338ZM359.759 86.6338L362.668 83.7251M362.668 83.7251V83.7251C363.442 84.4995 364.698 84.4995 365.472 83.7251L368.545 80.6522C370.335 78.8622 367.531 76.0579 365.741 77.8479L362.668 80.9207C361.894 81.6951 361.894 82.9507 362.668 83.7251V83.7251Z" stroke="#1A1F26" stroke-width="2"/>
<path d="M350.184 102.359H368.211C369.315 102.359 370.211 103.255 370.211 104.359V113.412H350.184V102.359Z" fill="#1A1F26" stroke="white" stroke-width="2"/>
<path d="M359.974 113.78H378C379.105 113.78 380 114.675 380 115.78V124.832H359.974V113.78Z" fill="#1A1F26" stroke="white" stroke-width="2"/>
<path d="M331.79 102.359H349.816V113.412H329.79V104.359C329.79 103.255 330.685 102.359 331.79 102.359Z" fill="#1A1F26" stroke="white" stroke-width="2"/>
<path d="M322 113.78H340.026V124.832H320V115.78C320 114.675 320.895 113.78 322 113.78Z" fill="#1A1F26" stroke="white" stroke-width="2"/>
<path d="M340.395 113.78H359.605V124.832H340.395V113.78Z" fill="#1A1F26" stroke="white" stroke-width="2"/>
</g>
<g opacity="0.2" clip-path="url(#clip1)">
<path d="M432.598 95.1328C435.09 95.1328 437.109 93.1129 437.109 90.6211V85.7344C437.109 85.1821 436.662 84.7344 436.109 84.7344H429C428.448 84.7344 428 85.1821 428 85.7344V90.6211C428 93.1129 430.106 95.1328 432.598 95.1328Z" fill="#1A1F26"/>
<path d="M448.711 90.6211V85.7344C448.711 85.1821 448.263 84.7344 447.711 84.7344H440.687C440.135 84.7344 439.688 85.1821 439.688 85.7344V90.6211C439.688 93.1129 441.707 95.1328 444.199 95.1328C446.691 95.1328 448.711 93.1129 448.711 90.6211Z" fill="#1A1F26"/>
<path d="M460.312 85.7344C460.312 85.1821 459.865 84.7344 459.312 84.7344H452.289C451.737 84.7344 451.289 85.1821 451.289 85.7344V90.6211C451.289 93.1129 453.309 95.1328 455.801 95.1328C458.293 95.1328 460.312 93.1129 460.312 90.6211V85.7344Z" fill="#1A1F26"/>
<path d="M472 85.7344C472 85.1821 471.552 84.7344 471 84.7344H463.891C463.338 84.7344 462.891 85.1821 462.891 85.7344V90.6211C462.891 93.1129 464.91 95.1328 467.402 95.1328C469.894 95.1328 472 93.1129 472 90.6211V85.7344Z" fill="#1A1F26"/>
<path d="M472 98.1794C472 97.3316 470.962 96.818 470.18 97.1459C469.319 97.5072 468.373 97.711 467.402 97.711C466.442 97.711 465.533 97.5117 464.703 97.1579C463.923 96.8254 462.891 97.3316 462.891 98.1794V103.512C462.891 106.004 464.91 108.023 467.402 108.023C469.894 108.023 472 106.004 472 103.512V98.1794Z" fill="#1A1F26"/>
<path d="M460.312 98.1794C460.312 97.3316 459.28 96.8254 458.5 97.1579C457.67 97.5117 456.761 97.711 455.801 97.711C454.841 97.711 453.932 97.5117 453.102 97.1579C452.322 96.8254 451.289 97.3316 451.289 98.1794V103.512C451.289 106.004 453.309 108.023 455.801 108.023C458.293 108.023 460.312 106.004 460.312 103.512V98.1794Z" fill="#1A1F26"/>
<path d="M439.688 103.512C439.688 106.004 441.707 108.023 444.199 108.023C446.691 108.023 448.711 106.004 448.711 103.512V98.1794C448.711 97.3316 447.678 96.8254 446.898 97.1579C446.068 97.5117 445.159 97.711 444.199 97.711C443.239 97.711 442.33 97.5117 441.5 97.1579C440.72 96.8254 439.688 97.3316 439.688 98.1794V103.512Z" fill="#1A1F26"/>
<path d="M432.598 108.023C435.09 108.023 437.109 106.004 437.109 103.512V98.1794C437.109 97.3316 436.077 96.8254 435.297 97.1579C434.467 97.5117 433.558 97.711 432.598 97.711C431.627 97.711 430.681 97.5072 429.82 97.1459C429.038 96.818 428 97.3316 428 98.1794V103.512C428 106.004 430.106 108.023 432.598 108.023Z" fill="#1A1F26"/>
<path d="M464.703 110.048C463.923 109.716 462.891 110.222 462.891 111.07V116.488C462.891 118.98 464.91 121 467.402 121C469.894 121 472 118.98 472 116.488V111.07C472 110.222 470.962 109.709 470.18 110.037C469.319 110.398 468.373 110.602 467.402 110.602C466.442 110.602 465.533 110.402 464.703 110.048Z" fill="#1A1F26"/>
<path d="M453.102 110.048C452.322 109.716 451.289 110.222 451.289 111.07V116.488C451.289 118.98 453.309 121 455.801 121C458.293 121 460.312 118.98 460.312 116.488V111.07C460.312 110.222 459.28 109.716 458.5 110.048C457.67 110.402 456.761 110.602 455.801 110.602C454.841 110.602 453.932 110.402 453.102 110.048Z" fill="#1A1F26"/>
<path d="M439.688 116.488C439.688 118.98 441.707 121 444.199 121C446.691 121 448.711 118.98 448.711 116.488V111.07C448.711 110.222 447.678 109.716 446.898 110.048C446.068 110.402 445.159 110.602 444.199 110.602C443.239 110.602 442.33 110.402 441.5 110.048C440.72 109.716 439.688 110.222 439.688 111.07V116.488Z" fill="#1A1F26"/>
<path d="M432.598 121C435.09 121 437.109 118.98 437.109 116.488V111.07C437.109 110.222 436.077 109.716 435.297 110.048C434.467 110.402 433.558 110.602 432.598 110.602C431.627 110.602 430.681 110.398 429.82 110.037C429.038 109.709 428 110.222 428 111.07V116.488C428 118.98 430.106 121 432.598 121Z" fill="#1A1F26"/>
<path d="M428 78C428 77.4477 428.448 77 429 77H471C471.552 77 472 77.4477 472 78V81.1563C472 81.7085 471.552 82.1562 471 82.1562H429C428.448 82.1562 428 81.7085 428 81.1563V78Z" fill="#1A1F26"/>
</g>
<g opacity="0.2">
<path d="M544.185 123.477C544.185 124.318 544.867 125 545.709 125H552.818C553.659 125 554.341 124.318 554.341 123.477V112.101H544.185V123.477Z" fill="#1A1F26"/>
<path d="M571.569 79.0938H567.417V74.5234C567.417 73.682 566.735 73 565.894 73H549.452V88.2348H565.894C566.735 88.2348 567.417 87.5524 567.417 86.7113V82.1406H570.045V89.9907C570.045 90.6846 569.576 91.2908 568.904 91.4653L551.923 95.8726C549.46 96.5117 547.74 98.735 547.74 101.28V101.945H545.709C544.867 101.945 544.185 102.627 544.185 103.468V109.054H554.341V103.468C554.341 102.627 553.659 101.945 552.818 101.945H550.787V101.28C550.787 100.123 551.569 99.1123 552.688 98.8219L569.67 94.4146C571.685 93.8913 573.092 92.0723 573.092 89.9907V80.6172C573.092 79.7761 572.41 79.0938 571.569 79.0938Z" fill="#1A1F26"/>
<path d="M527.047 74.5234V86.7113C527.047 87.5524 527.729 88.2348 528.57 88.2348H531.17V73H528.57C527.729 73 527.047 73.682 527.047 74.5234Z" fill="#1A1F26"/>
<path d="M546.404 92.9062V73H534.217V97.9852C534.217 99.6681 535.581 101.032 537.264 101.032C538.947 101.032 540.311 99.6681 540.311 97.9852V92.9062C540.311 94.5892 541.675 95.9531 543.358 95.9531C545.04 95.9531 546.404 94.5892 546.404 92.9062Z" fill="#1A1F26"/>
</g>
<path d="M9 171.982C9 170.469 10.1284 169.2 11.6178 168.934C22.5055 166.99 34.6721 161.529 38.6577 159.647C39.5116 159.244 40.4884 159.244 41.3423 159.647C45.328 161.529 57.4945 166.99 68.3822 168.934C69.8716 169.2 71 170.469 71 171.982V186.556C71 203.45 61.5406 219.184 41.1955 227.418C40.4379 227.725 39.5738 227.69 38.8389 227.332C17.1838 216.788 9 203.479 9 186.556V171.982Z" stroke="#1A1F26" stroke-width="2"/>
<path d="M31 194.5L36.1667 199.667" stroke="#1A1F26" stroke-width="2" stroke-linecap="round"/>
<path d="M36.1667 199.778L49.9445 186" stroke="#E31E24" stroke-width="2" stroke-linecap="round"/>
<path d="M148.167 223.5C148.167 225.709 146.376 227.5 144.167 227.5H95C92.7909 227.5 91 225.709 91 223.5V158C91 155.791 92.7909 154 95 154H122.01C123.071 154 124.088 154.421 124.838 155.172L146.995 177.328C147.745 178.079 148.167 179.096 148.167 180.157V223.5Z" stroke="#1A1F26" stroke-width="2" stroke-linecap="round"/>
<path d="M121.667 154C121.667 162.89 121.667 169.878 121.667 178.499C121.667 179.603 122.562 180.5 123.667 180.5H148.167" stroke="#1A1F26" stroke-width="2" stroke-linecap="round"/>
<mask id="mask0" mask-type="alpha" maskUnits="userSpaceOnUse" x="124" y="203" width="26" height="26">
<rect x="124" y="203" width="26" height="26" fill="white"/>
</mask>
<g mask="url(#mask0)">
<path d="M148.167 223.5C148.167 225.709 146.376 227.5 144.167 227.5H95C92.7909 227.5 91 225.709 91 223.5V158C91 155.791 92.7909 154 95 154H122.01C123.071 154 124.088 154.421 124.838 155.172L146.995 177.328C147.745 178.079 148.167 179.096 148.167 180.157V223.5Z" stroke="#E31E24" stroke-width="2" stroke-linecap="round"/>
</g>
<path d="M193.9 176.642L193.9 176.641C196.297 173.396 197.592 169.45 197.592 165.397V162.438C197.592 161.521 197.95 160.645 198.584 160.001C199.217 159.358 200.073 159 200.962 159C203.01 159 204.977 159.826 206.43 161.301C207.883 162.777 208.702 164.782 208.702 166.875V180.625C208.702 183.386 210.941 185.625 213.702 185.625H225.26C225.26 185.625 225.26 185.625 225.26 185.625C226.403 185.625 227.532 185.883 228.566 186.38C229.6 186.877 230.514 187.601 231.241 188.501C231.968 189.402 232.49 190.456 232.769 191.589C233.047 192.721 233.075 193.902 232.849 195.046L227.605 221.671L227.605 221.671C227.253 223.461 226.301 225.068 224.916 226.221C223.531 227.373 221.798 228.001 220.012 228H220.012H187.481C185.824 228 184.481 226.657 184.481 225V194.978C184.481 191.35 185.64 187.821 187.781 184.922C187.781 184.922 187.781 184.922 187.782 184.922L193.9 176.642ZM178.111 195.719V225C178.111 226.657 176.768 228 175.111 228H170C168.343 228 167 226.657 167 225V193C167 191.343 168.343 190 170 190H175.111C176.768 190 178.111 191.343 178.111 193V195.719Z" stroke="#1A1F26" stroke-width="2"/>
<mask id="mask1" mask-type="alpha" maskUnits="userSpaceOnUse" x="164" y="208" width="17" height="21">
<rect x="164" y="208" width="17" height="21" fill="white"/>
</mask>
<g mask="url(#mask1)">
<path d="M193.9 176.642L193.9 176.641C196.297 173.396 197.592 169.45 197.592 165.397V162.438C197.592 161.521 197.95 160.645 198.584 160.001C199.217 159.358 200.073 159 200.962 159C203.01 159 204.977 159.826 206.43 161.301C207.883 162.777 208.702 164.782 208.702 166.875V180.625C208.702 183.386 210.941 185.625 213.702 185.625H225.26C225.26 185.625 225.26 185.625 225.26 185.625C226.403 185.625 227.532 185.883 228.566 186.38C229.6 186.877 230.514 187.601 231.241 188.501C231.968 189.402 232.49 190.456 232.769 191.589C233.047 192.721 233.075 193.902 232.849 195.046L227.605 221.671L227.605 221.671C227.253 223.461 226.301 225.068 224.916 226.221C223.531 227.373 221.798 228.001 220.012 228H220.012H187.481C185.824 228 184.481 226.657 184.481 225V194.978C184.481 191.35 185.64 187.821 187.781 184.922C187.781 184.922 187.781 184.922 187.782 184.922L193.9 176.642ZM178.111 195.719V225C178.111 226.657 176.768 228 175.111 228H170C168.343 228 167 226.657 167 225V193C167 191.343 168.343 190 170 190H175.111C176.768 190 178.111 191.343 178.111 193V195.719Z" stroke="#E31E24" stroke-width="2"/>
</g>
<path d="M246.189 192.197C253.829 181.226 265.845 174 280.131 174C294.415 174 306.431 181.229 314.071 192.202C314.703 193.109 314.703 194.309 314.071 195.216C306.431 206.187 294.415 213.413 280.13 213.413C265.846 213.413 253.829 206.183 246.189 195.211C245.558 194.304 245.558 193.104 246.189 192.197Z" stroke="#1A1F26" stroke-width="2"/>
<mask id="mask2" mask-type="alpha" maskUnits="userSpaceOnUse" x="266" y="194" width="27" height="11">
<rect x="266" y="194" width="27" height="11" fill="white"/>
</mask>
<g mask="url(#mask2)">
<path d="M280.13 213.413C265.204 213.413 252.75 205.518 245.183 193.704C252.75 181.891 265.204 174 280.131 174C295.057 174 307.511 181.895 315.078 193.709C307.511 205.522 295.057 213.413 280.13 213.413Z" stroke="#E31E24" stroke-width="2"/>
</g>
<path d="M353.782 166.324H329C326.791 166.324 325 168.115 325 170.324V224C325 226.209 326.791 228 329 228H382.676C384.885 228 386.676 226.209 386.676 224V199.218M380.862 160.511C381.62 159.725 382.528 159.099 383.531 158.668C384.534 158.237 385.613 158.01 386.705 158C387.797 157.991 388.88 158.199 389.891 158.612C390.901 159.026 391.819 159.636 392.591 160.409C393.364 161.181 393.974 162.099 394.388 163.109C394.801 164.12 395.009 165.203 395 166.295C394.99 167.387 394.763 168.466 394.332 169.469C393.901 170.472 393.275 171.38 392.489 172.138L358.358 206.27C357.608 207.02 356.59 207.441 355.53 207.441H349.559C347.349 207.441 345.559 205.651 345.559 203.441V197.47C345.559 196.41 345.98 195.392 346.73 194.642L380.862 160.511Z" stroke="#1A1F26" stroke-width="2" stroke-linecap="round"/>
<mask id="mask3" mask-type="alpha" maskUnits="userSpaceOnUse" x="368" y="198" width="21" height="31">
<rect x="368" y="198" width="21" height="31" fill="white"/>
</mask>
<g mask="url(#mask3)">
<path d="M353.782 166.324H329C326.791 166.324 325 168.115 325 170.324V224C325 226.209 326.791 228 329 228H382.676C384.885 228 386.676 226.209 386.676 224V199.218M380.862 160.511C381.62 159.725 382.528 159.099 383.531 158.668C384.534 158.237 385.613 158.01 386.705 158C387.797 157.991 388.88 158.199 389.891 158.612C390.901 159.026 391.819 159.636 392.591 160.409C393.364 161.181 393.974 162.099 394.388 163.109C394.801 164.12 395.009 165.203 395 166.295C394.99 167.387 394.763 168.466 394.332 169.469C393.901 170.472 393.275 171.38 392.489 172.138L358.358 206.27C357.608 207.02 356.59 207.441 355.53 207.441H349.559C347.349 207.441 345.559 205.651 345.559 203.441V197.47C345.559 196.41 345.98 195.392 346.73 194.642L380.862 160.511Z" stroke="#E31E24" stroke-width="2" stroke-linecap="round"/>
</g>
<path d="M458.475 174.525L463.895 169.105M439.5 208.833C447.968 208.833 454.833 201.968 454.833 193.5C454.833 185.032 447.968 178.167 439.5 178.167C431.032 178.167 424.167 185.032 424.167 193.5C424.167 201.968 431.032 208.833 439.5 208.833ZM439.5 159V166.667V159ZM439.5 220.333V228V220.333ZM474 193.5H466.333H474ZM412.667 193.5H405H412.667ZM463.895 217.895L458.475 212.475L463.895 217.895ZM420.525 174.525L415.105 169.105L420.525 174.525ZM415.105 217.895L420.525 212.475L415.105 217.895Z" stroke="#1A1F26" stroke-width="2" stroke-linecap="round" stroke-linejoin="round"/>
<mask id="mask4" mask-type="alpha" maskUnits="userSpaceOnUse" x="454" y="203" width="26" height="26">
<rect x="454" y="203" width="26" height="26" fill="white"/>
</mask>
<g mask="url(#mask4)">
<path d="M458.475 174.525L463.895 169.105M439.5 208.833C447.968 208.833 454.833 201.968 454.833 193.5C454.833 185.032 447.968 178.167 439.5 178.167C431.032 178.167 424.167 185.032 424.167 193.5C424.167 201.968 431.032 208.833 439.5 208.833ZM439.5 159V166.667V159ZM439.5 220.333V228V220.333ZM474 193.5H466.333H474ZM412.667 193.5H405H412.667ZM463.895 217.895L458.475 212.475L463.895 217.895ZM420.525 174.525L415.105 169.105L420.525 174.525ZM415.105 217.895L420.525 212.475L415.105 217.895Z" stroke="#E31E24" stroke-width="2" stroke-linecap="round" stroke-linejoin="round"/>
</g>
<path d="M520.059 228C538.252 228 553.001 213.252 553.001 195.059C553.001 176.866 538.252 162.117 520.059 162.117C501.866 162.117 487.118 176.866 487.118 195.059C487.118 213.252 501.866 228 520.059 228Z" stroke="#1A1F26" stroke-width="2"/>
<path d="M520.059 178.588V196.236M483 170.353L495.353 158M557.118 170.353L544.765 158" stroke="#1A1F26" stroke-width="2" stroke-linecap="round"/>
<path d="M520.059 196.236L534.471 203.295" stroke="#E31E24" stroke-width="2" stroke-linecap="round"/>
<path d="M597.055 162.763C597.367 161.868 598.633 161.868 598.945 162.763L606.003 183.069C606.415 184.255 607.521 185.058 608.776 185.084L630.269 185.522C631.217 185.541 631.609 186.746 630.853 187.319L613.722 200.307C612.722 201.065 612.299 202.365 612.663 203.566L618.888 224.143C619.163 225.051 618.138 225.795 617.36 225.253L599.714 212.974C598.684 212.257 597.316 212.257 596.286 212.974L578.64 225.253C577.862 225.795 576.837 225.051 577.112 224.143L583.337 203.566C583.701 202.365 583.278 201.065 582.278 200.307L565.147 187.319C564.391 186.746 564.783 185.541 565.731 185.522L587.224 185.084C588.479 185.058 589.585 184.255 589.997 183.069L597.055 162.763Z" stroke="#1A1F26" stroke-width="2"/>
<mask id="mask5" mask-type="alpha" maskUnits="userSpaceOnUse" x="598" y="202" width="24" height="28">
<rect x="598" y="202" width="24" height="28" fill="white"/>
</mask>
<g mask="url(#mask5)">
<path d="M597.055 162.763C597.367 161.868 598.633 161.868 598.945 162.763L606.003 183.069C606.415 184.255 607.521 185.058 608.776 185.084L630.269 185.522C631.217 185.541 631.609 186.746 630.853 187.319L613.722 200.307C612.722 201.065 612.299 202.365 612.663 203.566L618.888 224.143C619.163 225.051 618.138 225.795 617.36 225.253L599.714 212.974C598.684 212.257 597.316 212.257 596.286 212.974L578.64 225.253C577.862 225.795 576.837 225.051 577.112 224.143L583.337 203.566C583.701 202.365 583.278 201.065 582.278 200.307L565.147 187.319C564.391 186.746 564.783 185.541 565.731 185.522L587.224 185.084C588.479 185.058 589.585 184.255 589.997 183.069L597.055 162.763Z" stroke="#E31E24" stroke-width="2"/>
</g>
<path d="M25.5271 249.653L15.8967 249.652C13.1352 249.652 10.8965 251.891 10.8965 254.652V303.058C10.8965 305.82 13.1351 308.058 15.8965 308.058H57.1034C59.8649 308.058 62.1034 305.82 62.1034 303.058V254.653C62.1034 251.891 59.8649 249.653 57.1034 249.653H47.4729M47.4729 249.652V249.652C47.4729 252.221 45.39 254.304 42.8207 254.304H30.1793C27.6099 254.304 25.5271 252.221 25.5271 249.652V249.652C25.5271 247.083 27.6099 245 30.1793 245H42.8207C45.39 245 47.4729 247.083 47.4729 249.652Z" stroke="#1A1F26" stroke-width="2" stroke-linecap="round"/>
<path d="M25.1207 278.502L32.436 285.803" stroke="#1A1F26" stroke-width="2" stroke-linecap="round"/>
<path d="M32.4361 285.92L47.0666 271.319" stroke="#E31E24" stroke-width="2" stroke-linecap="round"/>
<path d="M136.601 265.828V254.931C136.601 252.722 134.81 250.931 132.601 250.931H89.9178C87.7087 250.931 85.9178 252.722 85.9178 254.931L85.9178 284.172C85.9178 286.382 87.7087 288.172 89.9178 288.172H100.399M143.842 303.069H104.399C102.19 303.069 100.399 301.278 100.399 299.069V269.828C100.399 267.618 102.19 265.828 104.399 265.828H147.082C149.291 265.828 151.082 267.618 151.082 269.828V295.621M132.981 284.448C132.981 286.424 132.218 288.318 130.86 289.715C129.502 291.112 127.661 291.897 125.74 291.897C123.82 291.897 121.979 291.112 120.621 289.715C119.263 288.318 118.5 286.424 118.5 284.448C118.5 282.473 119.263 280.578 120.621 279.182C121.979 277.785 123.82 277 125.74 277C127.661 277 129.502 277.785 130.86 279.182C132.218 280.578 132.981 282.473 132.981 284.448Z" stroke="#1A1F26" stroke-width="2" stroke-linecap="round"/>
<mask id="mask6" mask-type="alpha" maskUnits="userSpaceOnUse" x="117" y="284" width="36" height="20">
<rect x="117.123" y="284.448" width="35.7945" height="19.5517" fill="white"/>
</mask>
<g mask="url(#mask6)">
<path d="M136.601 265.828V258.379C136.601 256.404 135.838 254.509 134.481 253.113C133.123 251.716 131.281 250.931 129.361 250.931H93.1583C91.238 250.931 89.3964 251.716 88.0385 253.113C86.6807 254.509 85.9178 256.404 85.9178 258.379V280.724C85.9178 282.7 86.6807 284.594 88.0385 285.991C89.3964 287.388 91.238 288.172 93.1583 288.172H100.399M107.639 303.069H147.082C149.291 303.069 151.082 301.278 151.082 299.069V273.276C151.082 271.3 150.319 269.406 148.962 268.009C147.604 266.612 145.762 265.828 143.842 265.828H107.639C105.719 265.828 103.877 266.612 102.519 268.009C101.162 269.406 100.399 271.3 100.399 273.276V295.621C100.399 297.596 101.162 299.491 102.519 300.887C103.877 302.284 105.719 303.069 107.639 303.069ZM132.981 284.448C132.981 286.424 132.218 288.318 130.86 289.715C129.502 291.112 127.661 291.897 125.74 291.897C123.82 291.897 121.979 291.112 120.621 289.715C119.263 288.318 118.5 286.424 118.5 284.448C118.5 282.473 119.263 280.578 120.621 279.182C121.979 277.785 123.82 277 125.74 277C127.661 277 129.502 277.785 130.86 279.182C132.218 280.578 132.981 282.473 132.981 284.448Z" stroke="#E31E24" stroke-width="2" stroke-linecap="round" stroke-linejoin="round"/>
</g>
<path d="M211.219 257.1L214.155 264.958C214.549 266.012 213.997 267.183 212.934 267.549L198.254 272.608C196.678 273.151 195.168 271.641 195.711 270.066L200.77 255.386C201.137 254.322 202.308 253.77 203.361 254.164L211.219 257.1ZM211.219 257.1L215.2 253.119M215.2 253.119C215.386 253.304 215.551 253.469 215.706 253.624C216.487 254.405 217.753 254.405 218.534 253.624L223.245 248.913C225.695 246.463 221.857 242.624 219.407 245.074L214.695 249.785C213.914 250.566 213.914 251.833 214.695 252.614C214.85 252.769 215.015 252.934 215.2 253.119Z" stroke="#1A1F26" stroke-width="2"/>
<path d="M199 295H222C223.105 295 224 295.896 224 297V309H199V295Z" stroke="#E31E24" stroke-width="2"/>
<path d="M174 297C174 295.896 174.895 295 176 295H199V309H174V297Z" stroke="#1A1F26" stroke-width="2"/>
<path d="M187 283C187 281.896 187.895 281 189 281H209C210.105 281 211 281.896 211 283V295H187V283Z" stroke="#1A1F26" stroke-width="2"/>
<path d="M296.264 263.486H310.375C312.032 263.486 313.375 264.829 313.375 266.486V294.514C313.375 296.171 312.032 297.514 310.375 297.514H302.764C301.107 297.514 299.764 298.857 299.764 300.514V308.305C299.764 309.346 298.506 309.867 297.77 309.131V309.131L287.031 298.393C286.469 297.83 285.706 297.514 284.91 297.514H268.736C267.079 297.514 265.736 296.171 265.736 294.514V294.014M264.23 295.52L274.969 284.781C275.531 284.219 276.294 283.903 277.09 283.903H293.264C294.921 283.903 296.264 282.56 296.264 280.903V252.875C296.264 251.218 294.921 249.875 293.264 249.875L251.625 249.875C249.968 249.875 248.625 251.218 248.625 252.875V280.903C248.625 282.56 249.968 283.903 251.625 283.903H259.236C260.893 283.903 262.236 285.246 262.236 286.903V294.694C262.236 295.735 263.494 296.256 264.23 295.52V295.52Z" stroke="#1A1F26" stroke-width="2" stroke-linecap="round" stroke-linejoin="round"/>
<mask id="mask7" mask-type="alpha" maskUnits="userSpaceOnUse" x="285" y="292" width="31" height="20">
<rect x="285.375" y="292.75" width="30.625" height="19.25" fill="white"/>
</mask>
<g mask="url(#mask7)">
<path d="M264.23 295.52L274.969 284.781C275.531 284.219 276.294 283.903 277.09 283.903H293.264C294.921 283.903 296.264 282.56 296.264 280.903V252.875C296.264 251.218 294.921 249.875 293.264 249.875L251.625 249.875C249.968 249.875 248.625 251.218 248.625 252.875V280.903C248.625 282.56 249.968 283.903 251.625 283.903H259.236C260.893 283.903 262.236 285.246 262.236 286.903V294.694C262.236 295.735 263.494 296.256 264.23 295.52V295.52ZM297.77 309.131L287.031 298.393C286.469 297.83 285.706 297.514 284.91 297.514H268.736C267.079 297.514 265.736 296.171 265.736 294.514V266.486C265.736 264.829 267.079 263.486 268.736 263.486H310.375C312.032 263.486 313.375 264.829 313.375 266.486V294.514C313.375 296.171 312.032 297.514 310.375 297.514H302.764C301.107 297.514 299.764 298.857 299.764 300.514V308.305C299.764 309.346 298.506 309.867 297.77 309.131V309.131Z" stroke="#E31E24" stroke-width="2" stroke-linecap="round" stroke-linejoin="round"/>
</g>
<path d="M453 305C470.121 305 484 291.121 484 274C484 256.879 470.121 243 453 243C435.879 243 422 256.879 422 274C422 291.121 435.879 305 453 305Z" stroke="#1A1F26" stroke-width="2" stroke-linecap="round" stroke-linejoin="round"/>
<path d="M439.223 274L449.556 284.333" stroke="#1A1F26" stroke-width="2" stroke-linecap="round"/>
<path d="M449.556 284.333L466.778 267.11" stroke="#E31E24" stroke-width="2" stroke-linecap="round"/>
<path d="M351.547 307.016C347.95 307.016 344.5 305.587 341.957 303.043C339.413 300.5 337.984 297.05 337.984 293.453V249.984C337.984 247.775 339.775 245.984 341.984 245.984H361.109C363.319 245.984 365.109 247.775 365.109 249.984V293.453C365.109 297.05 363.68 300.5 361.137 303.043C358.594 305.587 355.144 307.016 351.547 307.016ZM351.547 307.016H395.016C397.225 307.016 399.016 305.225 399.016 303.016V283.891C399.016 281.681 397.225 279.891 395.016 279.891H384.29M365.109 260.71L372.694 253.126C374.256 251.564 376.783 251.558 378.345 253.121C382.238 257.013 388.331 263.106 391.878 266.654C393.44 268.216 393.435 270.743 391.873 272.305L361.136 303.042M351.547 293.453H351.581" stroke="#1A1F26" stroke-width="2" stroke-linecap="round" stroke-linejoin="round"/>
<mask id="mask8" mask-type="alpha" maskUnits="userSpaceOnUse" x="387" y="278" width="21" height="30">
<rect x="387.203" y="278.469" width="20.6719" height="29.5312" fill="white"/>
</mask>
<g mask="url(#mask8)">
<path d="M351.547 307.016C347.95 307.016 344.5 305.587 341.957 303.043C339.413 300.5 337.984 297.05 337.984 293.453V249.984C337.984 247.775 339.775 245.984 341.984 245.984H361.109C363.319 245.984 365.109 247.775 365.109 249.984V293.453C365.109 297.05 363.68 300.5 361.137 303.043C358.594 305.587 355.144 307.016 351.547 307.016ZM351.547 307.016H395.016C397.225 307.016 399.016 305.225 399.016 303.016V283.891C399.016 281.681 397.225 279.891 395.016 279.891H384.29M365.109 260.71L372.694 253.126C374.256 251.564 376.783 251.558 378.345 253.121C382.238 257.013 388.331 263.106 391.878 266.654C393.44 268.216 393.435 270.743 391.873 272.305L361.136 303.042M351.547 293.453H351.581" stroke="#E31E24" stroke-width="2" stroke-linecap="round" stroke-linejoin="round"/>
</g>
<path d="M382.287 32.9263C387.06 28.1533 387.06 20.4146 382.287 15.6415C377.514 10.8685 369.777 10.8693 365.003 15.6424C361.439 19.207 360.536 24.4256 362.296 28.8277C362.603 30.5266 362.123 31.967 361.643 33.4074C361.162 34.8478 361.161 35.8072 361.642 36.2873C362.122 36.7674 363.082 36.7674 364.522 36.2873C365.963 35.8072 367.403 35.327 369.102 35.6339C373.504 37.3934 378.723 36.4909 382.287 32.9263Z" fill="#1A1F26"/>
<path d="M366.581 18.6941C366.581 18.2939 366.74 17.9101 367.023 17.6271C367.306 17.3442 367.689 17.1852 368.09 17.1852H370.564C370.723 17.1853 370.877 17.2352 371.005 17.3278C371.134 17.4204 371.23 17.5511 371.28 17.7012L372.41 21.091C372.467 21.2633 372.46 21.4504 372.391 21.6181C372.321 21.7858 372.193 21.9228 372.031 22.0039L370.328 22.8564C371.163 24.7038 372.642 26.1834 374.49 27.018L375.342 25.3152C375.423 25.1528 375.56 25.0251 375.728 24.9556C375.896 24.886 376.083 24.8792 376.255 24.9365L379.645 26.0667C379.795 26.1167 379.926 26.2128 380.019 26.3413C380.111 26.4698 380.161 26.6242 380.161 26.7826V29.2565C380.161 29.6567 380.002 30.0405 379.719 30.3235C379.436 30.6064 379.052 30.7654 378.652 30.7654H377.898C371.648 30.7654 366.581 25.6985 366.581 19.4486V18.6941Z" fill="white"/>
<path d="M323.056 14H311.944C308.109 14 305 17.1092 305 20.9444V32.0556C305 35.8908 308.109 39 311.944 39H323.056C326.891 39 330 35.8908 330 32.0556V20.9444C330 17.1092 326.891 14 323.056 14Z" fill="#1A1F26"/>
<path d="M322.187 26.5C322.187 23.9111 320.089 21.8125 317.5 21.8125C314.911 21.8125 312.812 23.9111 312.812 26.5C312.812 29.0889 314.911 31.1875 317.5 31.1875C320.089 31.1875 322.187 29.0889 322.187 26.5ZM324.965 19.9889C324.965 19.462 324.537 19.0347 324.01 19.0347C323.757 19.0347 323.514 19.1353 323.335 19.3142C323.156 19.4931 323.056 19.7358 323.056 19.9889V19.9903C323.056 20.5172 323.484 20.9445 324.011 20.9445C324.264 20.9445 324.507 20.8439 324.686 20.665C324.865 20.486 324.965 20.2433 324.965 19.9903V19.9889V19.9889Z" stroke="white" stroke-width="2" stroke-miterlimit="10"/>
<path d="M425.818 29L427 24H422.273V20.25C422.273 19.9185 422.397 19.6006 422.619 19.3662C422.841 19.1318 423.141 19.0001 423.455 19H427V14H423.455C422.679 14 421.91 14.1616 421.193 14.4757C420.476 14.7897 419.825 15.2501 419.276 15.8305C418.727 16.4108 418.292 17.0999 417.995 17.8582C417.698 18.6165 417.545 19.4292 417.545 20.25V24.0087L414 24V29H417.545V39H422.273V29H425.818Z" fill="#1A1F26"/>
<path d="M66.0625 24.0078L72.1797 30.125" stroke="#1A1F26" stroke-width="2" stroke-linecap="round" stroke-linejoin="round"/>
<path d="M72.1797 30.2188L87.8125 13" stroke="#E31E24" stroke-width="2" stroke-linecap="round" stroke-linejoin="round"/>
<path d="M78.75 12H59C57.8954 12 57 12.8954 57 14V39C57 40.1046 57.8954 41 59 41H84C85.1046 41 86 40.1046 86 39V26.5" stroke="#1A1F26" stroke-width="2" stroke-linecap="round"/>
<path d="M623 76L600 99.5L623 123" stroke="#1A1F26" stroke-width="2" stroke-linecap="round" stroke-linejoin="round"/>
<path d="M638 76L661 99.5L638 123" stroke="#1A1F26" stroke-width="2" stroke-linecap="round" stroke-linejoin="round"/>
<path d="M137 43H111V9H125.857L137 20.3333V43Z" stroke="white" stroke-width="2" stroke-linecap="round"/>
<path d="M118 25.7741L121.774 29.5482L129.322 21.9999" stroke="white" stroke-width="2" stroke-linecap="round"/>
<path d="M237.287 32.9263C242.06 28.1533 242.06 20.4146 237.287 15.6415C232.514 10.8685 224.777 10.8693 220.003 15.6424C216.439 19.207 215.536 24.4256 217.296 28.8277C217.603 30.5266 217.123 31.967 216.643 33.4074C216.162 34.8478 216.161 35.8072 216.642 36.2873C217.122 36.7674 218.082 36.7674 219.522 36.2873C220.963 35.8072 222.403 35.327 224.102 35.6339C228.504 37.3934 233.723 36.4909 237.287 32.9263Z" fill="white"/>
<path d="M221.581 18.6941C221.581 18.2939 221.74 17.9101 222.023 17.6271C222.306 17.3442 222.689 17.1852 223.09 17.1852H225.564C225.723 17.1853 225.877 17.2352 226.005 17.3278C226.134 17.4204 226.229 17.5511 226.28 17.7012L227.41 21.091C227.467 21.2633 227.46 21.4504 227.391 21.6181C227.321 21.7858 227.193 21.9228 227.031 22.0039L225.328 22.8564C226.163 24.7038 227.642 26.1834 229.49 27.018L230.342 25.3152C230.423 25.1528 230.56 25.0251 230.728 24.9556C230.896 24.886 231.083 24.8792 231.255 24.9365L234.645 26.0667C234.795 26.1167 234.926 26.2128 235.019 26.3413C235.111 26.4698 235.161 26.6242 235.161 26.7826V29.2565C235.161 29.6567 235.002 30.0405 234.719 30.3235C234.436 30.6064 234.052 30.7654 233.652 30.7654H232.898C226.648 30.7654 221.581 25.6985 221.581 19.4486V18.6941Z" fill="#1A1F26"/>
<path d="M178.056 14H166.944C163.109 14 160 17.1092 160 20.9444V32.0556C160 35.8908 163.109 39 166.944 39H178.056C181.891 39 185 35.8908 185 32.0556V20.9444C185 17.1092 181.891 14 178.056 14Z" fill="white"/>
<path d="M177.187 26.5C177.187 23.9111 175.089 21.8125 172.5 21.8125C169.911 21.8125 167.812 23.9111 167.812 26.5C167.812 29.0889 169.911 31.1875 172.5 31.1875C175.089 31.1875 177.187 29.0889 177.187 26.5ZM179.965 19.9889C179.965 19.462 179.537 19.0347 179.01 19.0347C178.757 19.0347 178.514 19.1353 178.335 19.3142C178.156 19.4931 178.056 19.7358 178.056 19.9889V19.9903C178.056 20.5172 178.484 20.9445 179.011 20.9445C179.264 20.9445 179.507 20.8439 179.686 20.665C179.865 20.486 179.965 20.2433 179.965 19.9903V19.9889V19.9889Z" stroke="#1A1F26" stroke-width="2" stroke-miterlimit="10"/>
<path d="M280.818 29L282 24H277.273V20.25C277.273 19.9185 277.397 19.6006 277.619 19.3662C277.841 19.1318 278.141 19.0001 278.455 19H282V14H278.455C277.679 14 276.91 14.1616 276.193 14.4757C275.476 14.7897 274.825 15.2501 274.276 15.8305C273.727 16.4108 273.292 17.0999 272.995 17.8582C272.698 18.6165 272.545 19.4292 272.545 20.25V24.0087L269 24V29H272.545V39H277.273V29H280.818Z" fill="white"/>
<defs>
<clipPath id="clip0">
<rect width="56" height="56" fill="white" transform="translate(22 71)"/>
</clipPath>
<clipPath id="clip1">
<rect width="44" height="44" fill="white" transform="translate(428 77)"/>
</clipPath>
</defs>
</svg>
